#Comment line ignore any data following # character 
#Hierarchical Translation and Rotation (.htr) file 
[Header]	
#Header keywords are followed by a single value 
FileType HTR		#Single word string
DataType HTRS		#Translation followed by rotation and scale data
FileVersion 1		#integer
NumSegments 25		#integer
NumFrames 4		#integer
DataFrameRate 30		#integer, data frame rate in this file
EulerRotationOrder ZYX
CalibrationUnits mm
RotationUnits Degrees
GlobalAxisofGravity Y
BoneLengthAxis Y
ScaleFactor 1.00
[SegmentNames&Hierarchy]
#CHILD	PARENT
BN_Tick_Root GLOBAL
BN_Torso BN_Tick_Root
BN_L_Leg_Front01 BN_Torso
BN_L_Leg_Rear01 BN_Torso
BN_MetalTop BN_Torso
BN_Neck BN_Torso
BN_R_Leg_Front01 BN_Torso
BN_R_Leg_Rear01 BN_Torso
BN_Sack BN_Torso
BN_L_Leg_Front02 BN_L_Leg_Front01
BN_L_Leg_Front03 BN_L_Leg_Front02
BN_L_Leg_Rear02 BN_L_Leg_Rear01
BN_L_Leg_Rear03 BN_L_Leg_Rear02
BN_Head BN_Neck
BN_Needle BN_Head
BN_R_Leg_Front02 BN_R_Leg_Front01
BN_R_Leg_Front03 BN_R_Leg_Front02
BN_R_Leg_Rear02 BN_R_Leg_Rear01
BN_R_Leg_Rear03 BN_R_Leg_Rear02
BN_SackDef01 BN_Sack
BN_SackDef02 BN_Sack
BN_SackDef03 BN_Sack
BN_SackDef04 BN_Sack
BN_SackDef05 BN_Sack
BN_SackDef06 BN_Sack
[BasePosition]
#SegmentName Tx, Ty, Tz, Rx, Ry, Rz, BoneLength
BN_Tick_Root 0.000000 0.000000 0.000000 -90.000000 0.000000 0.000000 10.000000 
BN_Torso 0.000000 0.000000 0.000000 0.000000 0.000000 0.000000 10.000000 
BN_L_Leg_Front01 0.000000 0.000000 0.000000 0.000000 0.000000 0.000000 10.000000 
BN_L_Leg_Rear01 0.000000 0.000000 0.000000 0.000000 0.000000 0.000000 10.000000 
BN_MetalTop 0.000000 0.000000 0.000000 0.000000 0.000000 0.000000 10.000000 
BN_Neck 0.000000 0.000000 0.000000 0.000000 0.000000 0.000000 10.000000 
BN_R_Leg_Front01 0.000000 0.000000 0.000000 0.000000 0.000000 0.000000 10.000000 
BN_R_Leg_Rear01 0.000000 0.000000 0.000000 0.000000 0.000000 0.000000 10.000000 
BN_Sack 0.000000 0.000000 0.000000 0.000000 0.000000 0.000000 10.000000 
BN_L_Leg_Front02 0.000000 0.000000 0.000000 0.000000 0.000000 0.000000 10.000000 
BN_L_Leg_Front03 0.000000 0.000000 0.000000 0.000000 0.000000 0.000000 10.000000 
BN_L_Leg_Rear02 0.000000 0.000000 0.000000 0.000000 0.000000 0.000000 10.000000 
BN_L_Leg_Rear03 0.000000 0.000000 0.000000 0.000000 0.000000 0.000000 10.000000 
BN_Head 0.000000 0.000000 0.000000 0.000000 0.000000 0.000000 10.000000 
BN_Needle 0.000000 0.000000 0.000000 0.000000 0.000000 0.000000 10.000000 
BN_R_Leg_Front02 0.000000 0.000000 0.000000 0.000000 0.000000 0.000000 10.000000 
BN_R_Leg_Front03 0.000000 0.000000 0.000000 0.000000 0.000000 0.000000 10.000000 
BN_R_Leg_Rear02 0.000000 0.000000 0.000000 0.000000 0.000000 0.000000 10.000000 
BN_R_Leg_Rear03 0.000000 0.000000 0.000000 0.000000 0.000000 0.000000 10.000000 
BN_SackDef01 0.000000 0.000000 0.000000 0.000000 0.000000 0.000000 10.000000 
BN_SackDef02 0.000000 0.000000 0.000000 0.000000 0.000000 0.000000 10.000000 
BN_SackDef03 0.000000 0.000000 0.000000 0.000000 0.000000 0.000000 10.000000 
BN_SackDef04 0.000000 0.000000 0.000000 0.000000 0.000000 0.000000 10.000000 
BN_SackDef05 0.000000 0.000000 0.000000 0.000000 0.000000 0.000000 10.000000 
BN_SackDef06 0.000000 0.000000 0.000000 0.000000 0.000000 0.000000 10.000000 
#Beginning of Data. Separated by tabs
#Fr	Tx	Ty	Tz	Rx	Ry	Rz	SF
[BN_Tick_Root]
39 0.000000 0.000000 0.000000 0.000000 0.000000 -0.000020 0.000000
40 0.000000 0.000000 0.000000 0.000000 0.000000 -0.000020 0.000000
41 0.000000 0.000000 0.000000 0.000000 0.000000 -0.000020 0.000000
42 0.000000 0.000000 0.000000 0.000000 0.000000 -0.000020 0.000000
[BN_Torso]
39 3.400748 109.076027 174.046539 6.732982 -1.950827 3.028720 205.429672
40 3.400748 109.076027 174.046539 6.753991 -0.410840 2.539020 205.429672
41 3.400748 109.076027 174.046539 6.736106 -2.146290 2.561254 205.429672
42 3.400748 109.076027 174.046539 6.658985 -5.368851 2.590702 205.429672
[BN_L_Leg_Front01]
39 -68.477791 10.734189 -26.804373 -36.197632 53.662056 174.589447 74.316254
40 -68.477791 10.734189 -26.804373 -36.052780 55.557320 175.499329 74.316254
41 -68.477791 10.734189 -26.804373 -36.206303 53.361618 175.216049 74.316254
42 -68.477791 10.734189 -26.804373 -36.531998 49.251827 174.663406 74.316254
[BN_L_Leg_Rear01]
39 -72.133743 -73.994843 -18.268616 68.255074 31.524181 -123.369873 104.939293
40 -72.133743 -73.994843 -18.268616 69.667412 32.583191 -121.665558 104.939293
41 -72.133743 -73.994843 -18.268616 67.998947 31.334497 -122.927383 104.939293
42 -72.133743 -73.994843 -18.268616 65.000877 28.974503 -125.138885 104.939293
[BN_MetalTop]
39 0.000008 13.737477 26.403606 93.498848 -26.203827 -97.882378 29.763546
40 0.000008 13.737477 26.403606 93.293137 -24.858883 -97.793999 29.763546
41 0.000008 13.737477 26.403606 93.091888 -23.513842 -97.711838 29.763546
42 0.000008 13.737477 26.403606 92.894760 -22.169113 -97.635605 29.763546
[BN_Neck]
39 0.000014 95.233284 10.002091 -89.999672 -65.297531 89.999657 95.757088
40 0.000014 95.233284 10.002091 -89.999672 -65.297531 89.999657 95.757088
41 0.000014 95.233284 10.002091 -89.999672 -65.297531 89.999657 95.757088
42 0.000014 95.233284 10.002091 -89.999672 -65.297531 89.999657 95.757088
[BN_R_Leg_Front01]
39 68.477768 10.734107 -26.804314 33.121937 60.291904 -4.298845 74.316193
40 68.477768 10.734107 -26.804314 33.728474 58.406082 -2.943808 74.316193
41 68.477768 10.734107 -26.804314 33.093182 60.595131 -3.659898 74.316193
42 68.477768 10.734107 -26.804314 31.786373 64.628685 -5.132631 74.316193
[BN_R_Leg_Rear01]
39 72.133751 -73.994873 -18.268644 -70.892372 43.308846 -64.707420 104.939331
40 72.133751 -73.994873 -18.268644 -69.178139 42.320801 -62.472012 104.939331
41 72.133751 -73.994873 -18.268644 -71.210281 43.532772 -64.306267 104.939331
42 72.133751 -73.994873 -18.268644 -75.218437 45.678696 -67.929474 104.939331
[BN_Sack]
39 -0.000000 -78.024918 33.657791 91.379875 -11.014523 -97.199577 84.974907
40 -0.000000 -78.024918 33.657791 91.379875 -11.014523 -97.199577 84.974907
41 -0.000000 -78.024918 33.657791 91.379875 -11.014523 -97.199577 84.974907
42 -0.000000 -78.024918 33.657791 91.379875 -11.014523 -97.199577 84.974907
[BN_L_Leg_Front02]
39 142.805023 -0.000015 -0.000104 -0.226950 0.972024 -157.302216 142.805023
40 142.805023 -0.000015 -0.000104 -0.223278 0.968259 -156.752090 142.805023
41 142.805023 -0.000015 -0.000104 -0.232591 0.977428 -157.509079 142.805023
42 142.805023 -0.000015 -0.000104 -0.250090 0.991272 -158.743393 142.805023
[BN_L_Leg_Front03]
39 124.143021 -0.000045 0.000007 0.353036 -0.211439 151.835892 124.143021
40 124.143021 -0.000045 0.000007 0.351829 -0.213468 151.519760 124.143021
41 124.143021 -0.000045 0.000007 0.355940 -0.213393 151.886978 124.143021
42 124.143021 -0.000045 0.000007 0.352491 -0.205604 152.472946 124.143021
[BN_L_Leg_Rear02]
39 139.939041 0.000075 -0.000022 0.111775 -0.228658 87.746941 139.939041
40 139.939041 0.000075 -0.000022 0.112322 -0.228389 87.472496 139.939041
41 139.939041 0.000075 -0.000022 0.106392 -0.220005 87.729752 139.939041
42 139.939041 0.000075 -0.000022 0.100500 -0.211594 87.986984 139.939041
[BN_L_Leg_Rear03]
39 142.839615 0.000179 -0.000060 0.000307 -0.002327 -105.032883 142.839615
40 142.839615 0.000179 -0.000060 0.000300 -0.002328 -104.690079 142.839615
41 142.839615 0.000179 -0.000060 0.000307 -0.002327 -105.011116 142.839615
42 142.839615 0.000179 -0.000060 0.000313 -0.002326 -105.332130 142.839615
[BN_Head]
39 57.062447 -0.000030 0.000000 -3.918477 5.292116 -14.144268 57.062447
40 57.062447 -0.000030 0.000000 -3.530696 3.723923 -14.098757 57.062447
41 57.062447 -0.000030 0.000000 -3.433430 5.457278 -14.110866 57.062447
42 57.062447 -0.000030 0.000000 -3.246714 8.671715 -14.162034 57.062447
[BN_Needle]
39 46.997829 425.919373 -0.000095 0.000003 0.000030 87.896805 428.504517
40 46.997829 425.919373 -0.000095 0.000003 0.000030 87.896805 428.504517
41 46.997826 425.919373 -0.000095 0.000003 0.000030 87.896805 428.504517
42 46.997826 425.919373 -0.000094 0.000003 0.000030 87.896805 428.504517
[BN_R_Leg_Front02]
39 142.804947 -0.000060 0.000060 0.357304 1.053222 167.309189 142.804947
40 142.804947 -0.000060 0.000060 0.378758 1.066680 168.204773 142.804947
41 142.804947 -0.000060 0.000060 0.363915 1.064874 167.080292 142.804947
42 142.804947 -0.000060 0.000060 0.328052 1.034832 164.847382 142.804947
[BN_R_Leg_Front03]
39 124.143005 -0.000060 -0.000156 -0.354420 -0.180034 -156.310928 124.143005
40 124.143005 -0.000060 -0.000156 -0.352824 -0.176362 -156.689804 124.143005
41 124.143005 -0.000060 -0.000156 -0.354579 -0.179721 -156.209824 124.143005
42 124.143005 -0.000060 -0.000156 -0.353363 -0.187461 -155.248642 124.143005
[BN_R_Leg_Rear02]
39 139.939011 -0.000149 0.000015 0.009078 -0.261660 -121.798309 139.939011
40 139.939011 -0.000149 0.000015 0.013296 -0.246225 -122.414368 139.939011
41 139.939011 -0.000149 0.000015 0.009259 -0.261654 -121.877518 139.939011
42 139.939011 -0.000149 0.000015 0.005526 -0.243946 -120.799667 139.939011
[BN_R_Leg_Rear03]
39 142.839417 0.000075 0.000119 0.002137 -0.000971 138.846680 142.839417
40 142.839417 0.000075 0.000119 0.002133 -0.000979 139.300644 142.839417
41 142.839417 0.000075 0.000119 0.002137 -0.000972 138.904770 142.839417
42 142.839417 0.000075 0.000119 0.002143 -0.000956 138.095596 142.839417
[BN_SackDef01]
39 451.223328 -10.695902 77.918373 -128.408218 -44.374973 -11.740845 458.026367
40 419.156952 -9.591924 72.351875 -128.408218 -44.374973 -11.740845 425.463684
41 387.090332 -8.487937 66.785332 -128.408218 -44.374973 -11.740845 392.901062
42 356.773132 -7.444176 61.522476 -128.408218 -44.374973 -11.740845 362.115326
[BN_SackDef02]
39 193.441849 -148.517975 87.728493 32.077126 -27.375721 -88.781525 259.178772
40 184.882462 -134.988480 81.142166 32.077126 -27.375721 -88.781525 242.873352
41 176.323013 -121.458893 74.555786 32.077126 -27.375721 -88.781525 226.717072
42 167.763565 -107.929329 67.969421 32.077126 -27.375721 -88.781525 210.744385
[BN_SackDef03]
39 451.223297 -10.695883 -77.918648 18.144459 44.375008 -11.740894 458.026367
40 419.156891 -9.591895 -72.352089 18.144459 44.375008 -11.740894 425.463654
41 387.090240 -8.487899 -66.785484 18.144459 44.375008 -11.740894 392.901001
42 356.773102 -7.444118 -61.522579 18.144459 44.375008 -11.740894 362.115295
[BN_SackDef04]
39 193.441849 -148.517914 -87.728432 146.059982 27.375723 -88.781555 259.178711
40 184.882446 -134.988419 -81.142090 146.059982 27.375723 -88.781555 242.873276
41 176.322983 -121.458817 -74.555695 146.059982 27.375723 -88.781555 226.716980
42 167.763535 -107.929237 -67.969307 146.059982 27.375723 -88.781555 210.744263
[BN_SackDef05]
39 217.470291 171.924988 -121.846611 0.155741 51.314110 90.605110 302.816986
40 201.761902 151.906250 -112.611420 0.155741 51.314110 90.605110 276.522522
41 186.053391 131.887375 -103.376175 0.155741 51.314110 90.605110 250.393265
42 171.201874 112.960602 -94.644775 0.155741 51.314110 90.605110 225.893372
[BN_SackDef06]
39 217.470352 171.925064 121.846375 152.058487 -51.314072 90.605019 302.816986
40 201.761963 151.906357 112.611252 152.058487 -51.314072 90.605019 276.522552
41 186.053467 131.887497 103.376053 152.058487 -51.314072 90.605019 250.393326
42 171.201935 112.960678 94.644653 152.058487 -51.314072 90.605019 225.893402
